<svg width="80" height="80" viewBox="0 0 80 80" fill="none" xmlns="http://www.w3.org/2000/svg">
<path d="M53.2399 35.8485C53.9757 36.7234 54.483 37.7093 55.3058 38.4623C56.0588 37.5299 56.8008 36.6111 57.5907 35.6335C56.744 35.4877 55.9835 35.348 55.2195 35.2316C55.0265 35.2022 54.8061 35.2056 54.626 35.27C54.1756 35.4316 53.7403 35.6362 53.2399 35.8485ZM41.483 55.2605C42.4701 56.0575 43.3853 56.7969 44.3457 57.5719C44.4628 57.0036 44.5908 56.5244 44.6565 56.0369C44.8509 54.6013 44.9276 55.0907 44.3512 53.7215C44.2889 53.5736 44.2211 53.4273 44.141 53.2471C43.2285 53.9379 42.3701 54.5882 41.483 55.2605ZM30.6372 55.5181C31.2157 55.1209 31.727 54.754 32.2555 54.4117C32.7127 54.1151 33.0509 53.7421 33.2145 53.2115C33.3076 52.9104 33.4377 52.62 33.5698 52.2742C32.4163 52.2373 31.3731 51.8067 30.269 51.9244C30.3908 53.1102 30.5092 54.2691 30.6372 55.5181ZM57.5983 44.3726C56.7926 43.3778 56.0499 42.4604 55.2579 41.4822C54.572 42.3899 53.9162 43.2579 53.2399 44.1535C53.6704 44.3335 54.0517 44.5025 54.4412 44.6512C54.6253 44.721 54.8335 44.8128 55.0162 44.7881C55.8534 44.6745 56.6858 44.5231 57.5983 44.3726ZM44.3306 22.437C43.3723 23.2126 42.4557 23.9541 41.483 24.7414C42.3736 25.4137 43.2409 26.0695 44.1527 26.7589C44.3532 26.2811 44.5387 25.8607 44.7051 25.4328C44.7585 25.2938 44.7934 25.1323 44.7831 24.9851C44.7208 24.1403 44.5504 23.3146 44.3306 22.437ZM35.852 53.2436C35.661 53.6948 35.4666 54.0988 35.3201 54.5184C35.2421 54.7436 35.2079 54.999 35.2222 55.2372C35.2421 55.5748 35.3167 55.9104 35.3824 56.2444C35.4666 56.6749 35.5645 57.1028 35.6651 57.5738C36.6365 56.7846 37.5531 56.0395 38.5183 55.2552C37.6133 54.5719 36.7529 53.9229 35.852 53.2436ZM22.4085 35.6356C23.2217 36.6378 23.9658 37.5552 24.729 38.4959C25.0836 38.0563 25.4334 37.6456 25.7579 37.2163C26.0906 36.7754 26.3986 36.3161 26.7368 35.8382C26.3479 35.6753 25.9735 35.5336 25.6141 35.3617C25.3218 35.2221 25.0309 35.1803 24.7153 35.2364C23.9733 35.3693 23.2306 35.4939 22.4085 35.6356ZM49.733 51.9128C48.5891 51.8375 47.5548 52.2276 46.4417 52.2825C46.7655 53.143 46.9613 54.0173 47.8375 54.4794C48.1086 54.6232 48.3441 54.8339 48.6015 55.0065C48.8404 55.1661 49.0854 55.3154 49.3668 55.494C49.4927 54.2625 49.6111 53.1035 49.733 51.9128ZM28.0949 30.2655C26.8983 30.3894 25.7284 30.5106 24.4826 30.6393C24.8844 31.2205 25.2534 31.734 25.6004 32.2618C25.89 32.702 26.2391 33.0443 26.7607 33.199C27.077 33.2928 27.3789 33.4332 27.7287 33.568C27.7677 32.4241 28.1763 31.3903 28.0949 30.2655ZM52.2911 33.579C52.6806 33.4174 52.9975 33.2483 53.3357 33.1552C53.7909 33.0299 54.0757 32.7287 54.3248 32.3631C54.6479 31.8901 54.9765 31.4197 55.2976 30.9453C55.3619 30.8495 55.4037 30.7385 55.4584 30.6297C54.2454 30.5065 53.0708 30.386 51.8304 30.26C51.9851 31.3739 52.133 32.4371 52.2911 33.579ZM35.8547 26.7733C36.7186 26.0065 37.7242 25.5266 38.458 24.6914C37.5353 23.9438 36.6173 23.201 35.6357 22.4068C35.4824 23.2927 35.3393 24.1108 35.2024 24.9289C35.1866 25.0186 35.1777 25.1241 35.2092 25.2048C35.4119 25.7156 35.6261 26.2215 35.8547 26.7733ZM22.4174 44.3546C23.0889 44.4806 23.6995 44.5801 24.3019 44.714C24.8516 44.8368 25.3691 44.8106 25.8736 44.5429C26.1501 44.3958 26.4431 44.2787 26.7559 44.1356C26.0153 43.2614 25.506 42.2818 24.7044 41.5341C23.9514 42.4626 23.2135 43.3729 22.4174 44.3546ZM49.7391 28.1719C49.6111 26.9054 49.4927 25.7341 49.3688 24.5141C48.5624 24.9906 47.8368 25.4869 47.1646 26.0599C47.1071 26.1085 47.0517 26.1722 47.0229 26.2407C46.8265 26.711 46.6375 27.1841 46.4267 27.705C47.5288 27.8605 48.5946 28.0111 49.7391 28.1719ZM27.6951 46.4338C27.3083 46.5914 26.9483 46.7652 26.5704 46.885C26.2234 46.996 25.981 47.211 25.7825 47.4964C25.4108 48.0291 25.0405 48.5631 24.6743 49.1003C24.6209 49.1793 24.5949 49.2771 24.5531 49.3737C25.7538 49.4969 26.9161 49.6152 28.0928 49.7358C28.0928 49.5001 28.1188 49.2683 28.088 49.0436C27.9696 48.1898 27.8327 47.3388 27.6951 46.4338ZM30.6352 24.497C30.5085 25.7409 30.3887 26.9129 30.269 28.0877C30.8049 28.0994 33.2179 27.781 33.5554 27.6523C33.4965 27.5099 33.4185 27.3723 33.3829 27.2244C33.1734 26.3557 32.6244 25.7621 31.8804 25.3123C31.4731 25.0659 31.0829 24.7913 30.6352 24.497ZM52.2658 46.4176C52.2309 47.5908 51.8188 48.6334 51.9173 49.7358C53.0975 49.6138 54.2701 49.4935 55.4838 49.3681C55.0217 48.5767 54.5288 47.8676 53.9744 47.2005C53.9162 47.1302 53.8443 47.057 53.7628 47.0228C53.2953 46.8254 52.8223 46.6406 52.2658 46.4176ZM36.1936 59.6372C36.4886 62.0143 39.1474 69.7005 40.0646 70.734C41.7725 67.1569 42.9643 63.4472 43.8138 59.6482C42.5447 58.5835 41.3385 57.4759 39.9674 56.5401C39.3253 57.0563 38.6935 57.5561 38.0713 58.0669C37.4504 58.5761 36.8391 59.0965 36.1936 59.6372ZM18.3177 61.6637C19.4656 61.6945 27.6321 57.7013 28.8184 56.5353C28.7418 55.7274 28.648 54.9305 28.5953 54.1317C28.5426 53.3142 28.4399 52.5076 28.277 51.6684C27.4548 51.5802 26.6567 51.489 25.8578 51.4096C25.0466 51.3288 24.2341 51.2598 23.4284 51.1857C21.7965 53.4327 18.4477 60.3021 18.3177 61.6637ZM39.9544 23.4707C41.3447 22.5171 42.5529 21.4087 43.8125 20.3537C43.1478 16.9615 40.9662 10.5836 39.9948 9.32258C39.0522 10.5097 36.2148 18.8414 36.2176 20.4071C37.4648 21.4299 38.7086 22.45 39.9544 23.4707ZM9.32359 39.9842C11.05 40.9961 12.9167 41.5999 14.7595 42.2647C16.607 42.9314 18.5162 43.3614 20.3405 43.8139C21.4576 42.5276 22.5296 41.3116 23.4763 39.9541C22.4372 38.6869 21.4097 37.4334 20.3815 36.1791C16.5523 37.0431 12.851 38.2248 9.32359 39.9842ZM59.6375 36.2004C58.582 37.4594 57.4744 38.665 56.529 40.0492C57.5668 41.3143 58.595 42.5672 59.632 43.831C61.5254 43.3374 63.4298 42.9295 65.2637 42.2577C67.0962 41.5863 68.9643 41.0009 70.703 40.0342C69.6201 39.1127 61.8492 36.4407 59.6375 36.2004ZM51.1897 56.5888C51.2684 56.6421 51.3642 56.7188 51.4703 56.7776C52.9174 57.5799 54.2933 58.5044 55.7938 59.2203C57.5942 60.0796 59.374 60.9805 61.2701 61.6186C61.405 61.6637 61.5494 61.68 61.7904 61.7309C60.4439 57.9238 58.6607 54.4623 56.5913 51.2037C54.9026 51.3261 53.2741 51.4165 51.6661 51.7251C51.573 52.5699 51.4772 53.3663 51.3991 54.1638C51.3211 54.9607 51.2602 55.7595 51.1897 56.5888ZM28.277 28.3561C28.5973 26.685 28.6658 25.0508 28.813 23.4242C26.6745 21.8222 19.4369 18.3122 18.3156 18.3334C18.4621 19.7588 22.1798 27.3443 23.4606 28.8264C25.0514 28.671 26.6478 28.5149 28.277 28.3561ZM56.5968 28.7984C56.6434 28.7299 56.7111 28.6464 56.7638 28.5533C57.6462 27.0067 58.6223 25.5136 59.3815 23.8966C60.1769 22.2015 61.0223 20.529 61.6144 18.7462C61.6603 18.61 61.6849 18.4662 61.724 18.3088C60.3131 18.4224 52.5492 22.2323 51.2109 23.4283C51.2369 23.887 51.2465 24.3176 51.2896 24.7455C51.4012 25.8518 51.5319 26.9561 51.6435 28.0624C51.6647 28.2774 51.7551 28.3493 51.9632 28.3643C52.3328 28.3917 52.6991 28.4567 53.068 28.4937C53.9141 28.5772 54.7609 28.6553 55.6077 28.7313C55.9136 28.7587 56.221 28.773 56.5968 28.7984ZM27.359 70.3816C26.658 71.2879 25.9495 72.1875 25.2609 73.1029C24.9891 73.4629 24.6818 73.7204 24.2088 73.6287C23.5359 73.4987 23.2114 72.7777 23.5859 72.1854C23.8747 71.7289 24.2396 71.3208 24.5647 70.8867C25.4485 69.7085 26.3295 68.5275 27.2098 67.3466C27.2351 67.3131 27.244 67.2687 27.309 67.1131C27.0017 67.2899 26.7724 67.4008 26.5649 67.5445C26.031 67.9162 25.4991 68.2914 24.9823 68.6863C24.5004 69.054 23.9165 69.0404 23.5674 68.6214C23.2162 68.2005 23.2744 67.5923 23.7611 67.2254C24.4292 66.7216 25.1213 66.2485 25.8202 65.7899C26.7012 65.2114 27.6047 64.6664 28.4878 64.092C28.6493 63.9875 28.8054 63.8291 28.8889 63.6588C29.121 63.1884 29.314 62.6982 29.5666 62.1128C29.1525 62.2532 28.8239 62.3553 28.5029 62.4764C28.1702 62.6016 27.8471 62.7508 27.5158 62.8795C26.9243 63.1103 26.2726 62.8576 26.0659 62.3238C25.8955 61.8849 26.068 61.3939 26.4835 61.1647C26.5903 61.1051 26.7121 61.0717 26.8292 61.0319C28.0011 60.6355 29.1744 60.2432 30.3443 59.8391C30.4654 59.7974 30.6133 59.7145 30.6653 59.6091C31.0603 58.8028 31.4354 57.9853 31.8146 57.17C31.8256 57.1467 31.8133 57.1119 31.8092 57.0269C30.106 58.0345 28.4508 59.0767 26.7374 60.0111C25.0138 60.9516 23.232 61.7862 21.4419 62.6845C21.548 63.6245 21.6609 64.5892 21.765 65.5542C21.8136 66.0001 21.8636 66.4472 21.88 66.8941C21.8951 67.3105 21.6733 67.6019 21.2954 67.7616C20.9134 67.9231 20.5547 67.8491 20.2679 67.561C20.144 67.4364 20.029 67.253 20.0098 67.0845C19.8948 66.087 19.8113 65.086 19.7134 64.0872C19.6915 63.8585 19.6559 63.632 19.6217 63.3649C19.3493 63.4464 19.1186 63.5237 18.8838 63.5841C18.6463 63.6451 18.4053 63.6909 18.1657 63.74C17.8214 63.8114 17.5325 63.927 17.4052 64.3131C17.0109 65.5037 16.6043 66.6908 16.1826 67.8718C15.917 68.6144 15.6316 69.3512 15.3242 70.0775C15.1195 70.5624 14.5856 70.7616 14.1187 70.5773C13.6683 70.4001 13.4376 69.9392 13.5766 69.4376C13.6718 69.0953 13.7806 68.7521 13.9264 68.4296C14.4247 67.3254 14.7732 66.1685 15.1627 65.0259C15.1818 64.9697 15.1805 64.9068 15.1983 64.7774C14.845 64.8855 14.526 64.9766 14.2118 65.082C13.5958 65.2901 12.9783 65.4949 12.3698 65.7227C11.8776 65.9075 11.3984 66.1273 10.9117 66.3274C10.7981 66.3739 10.6783 66.4108 10.5578 66.4376C10.0506 66.5512 9.55359 66.3164 9.42422 65.8706C9.29552 65.4278 9.35987 64.9095 9.98759 64.6541C11.5367 64.0248 13.0988 63.4301 14.702 62.9495C15.0867 62.8343 15.457 62.6709 15.8369 62.538C16.1162 62.4409 16.1833 62.182 16.2449 61.9561C16.3825 61.4536 16.4729 60.938 16.5961 60.363C16.1635 60.3279 15.7062 60.2924 15.2489 60.2547C15.0483 60.2384 14.8478 60.2234 14.6486 60.2007C14.1263 60.141 13.6053 60.0681 13.083 60.0186C12.5224 59.9658 12.1617 59.5907 12.1747 59.0472C12.1884 58.5124 12.5806 58.1108 13.1337 58.123C13.5807 58.1324 14.0277 58.1969 14.4733 58.246C14.9648 58.3003 15.455 58.3715 15.9465 58.4228C16.4065 58.4707 16.8685 58.5022 17.3278 58.5405C18.215 56.7736 19.0494 54.9936 19.9893 53.2711C20.9237 51.5588 21.9649 49.9048 23.0102 48.1385C22.8082 48.209 22.6693 48.2427 22.5433 48.3029C21.8567 48.6267 21.1763 48.9648 20.4863 49.2811C20.2967 49.3688 20.2077 49.4975 20.1433 49.6844C19.8168 50.6359 19.4759 51.5829 19.1473 52.5339C19.072 52.752 19.0364 52.9842 18.9659 53.2053C18.7578 53.8552 18.2458 54.148 17.69 53.9439C17.1567 53.749 16.8945 53.0869 17.1197 52.5015C17.3477 51.9094 17.5763 51.3179 17.8043 50.7258C17.8262 50.6696 17.8447 50.6121 17.8844 50.4998C17.7481 50.5327 17.6489 50.5442 17.5606 50.5806C17.1875 50.7333 16.8206 50.8996 16.4468 51.0488C16.1046 51.185 15.9252 51.4713 15.7425 51.7616C15.0648 52.8371 14.3932 53.9167 13.7026 54.984C13.4246 55.4124 13.1111 55.8192 12.799 56.2246C12.5566 56.5394 12.2329 56.7166 11.8249 56.6421C11.1034 56.5112 10.82 55.687 11.2738 55.0779C11.6448 54.5807 12.0159 54.0844 12.3705 53.5758C12.5532 53.3142 12.7004 53.0267 12.8058 52.7001C12.699 52.7726 12.5888 52.8411 12.4861 52.9187C11.039 54.0124 9.59261 55.1073 8.1455 56.2013C8.04625 56.2759 7.94699 56.3511 7.8402 56.4134C7.35076 56.6968 6.81957 56.5915 6.52453 56.1567C6.23292 55.7282 6.32875 55.1824 6.76891 54.8401C7.62457 54.1742 8.4864 53.5142 9.34481 52.8508C9.43859 52.7788 9.52894 52.7036 9.59124 52.5584C9.1682 52.6023 8.74379 52.6344 8.32212 52.6906C7.54038 52.7954 6.76138 52.9187 5.97965 53.0253C5.50937 53.0898 5.00966 52.7405 4.92341 52.3031C4.81936 51.7711 5.06237 51.2927 5.56824 51.1742C6.06384 51.0576 6.57724 51.0207 7.08311 50.9483C8.60004 50.7311 10.1177 50.5143 11.6346 50.2952C11.6777 50.2891 11.7174 50.2637 11.8749 50.2006C11.512 50.1035 11.2506 50.0123 10.9815 49.9644C10.3114 49.8446 9.63711 49.7454 8.9649 49.6352C8.22355 49.514 7.88744 48.6918 8.34402 48.1173C8.53021 47.8839 8.77528 47.7482 9.07374 47.7833C9.73431 47.8606 10.399 47.9237 11.0493 48.0563C12.278 48.3069 13.4965 48.6075 14.7218 48.8739C14.9279 48.9182 15.1675 48.9506 15.3591 48.8883C15.8862 48.7163 16.3969 48.4925 16.9993 48.255C16.6009 48.0606 16.2819 47.8956 15.9554 47.7491C15.6309 47.6033 15.2893 47.4958 14.9724 47.3356C14.561 47.1273 14.2954 46.8139 14.3111 46.3079C14.3316 45.6255 14.9155 45.201 15.559 45.4281C15.6747 45.4692 15.7822 45.5356 15.8931 45.5912C16.9876 46.1354 18.0795 46.6837 19.1781 47.219C19.2911 47.2739 19.4574 47.2917 19.5738 47.2527C20.3802 46.978 21.1804 46.6852 21.9806 46.3956C22.0504 46.3702 22.112 46.3223 22.2216 46.2592C20.2686 45.7575 18.3519 45.3192 16.4681 44.7662C14.5856 44.2137 12.7367 43.5454 10.8439 42.9183C10.2573 43.6502 9.65901 44.3985 9.05936 45.1467C8.78829 45.485 8.53021 45.8343 8.24065 46.156C7.88333 46.5515 7.28641 46.5817 6.89623 46.2517C6.47524 45.895 6.42733 45.3257 6.7915 44.8852C7.45139 44.0856 8.11881 43.2922 8.78007 42.4934C8.87659 42.3762 8.956 42.2455 9.05936 42.0975C8.80951 41.9681 8.58772 41.862 8.37551 41.7395C8.17631 41.6245 7.97985 41.5025 7.79639 41.3642C7.49109 41.1351 7.18853 41.033 6.81272 41.2207C5.69145 41.7825 4.56676 42.3393 3.43386 42.8765C2.73495 43.2079 2.02578 43.5195 1.30702 43.8051C0.797724 44.0075 0.294588 43.7898 0.0885434 43.3374C-0.120239 42.88 0.046106 42.3789 0.528702 42.1093C0.851802 41.9277 1.19886 41.7882 1.53633 41.6333C2.66102 41.1193 3.7864 40.6064 4.99323 40.0561C4.81251 39.9342 4.7242 39.8562 4.62152 39.8083C3.55571 39.3112 2.48715 38.8204 1.42133 38.324C1.09891 38.1741 0.766232 38.0365 0.465037 37.8496C-0.051786 37.5285 -0.148303 36.8788 0.228191 36.4427C0.482153 36.1483 0.926413 36.0313 1.3385 36.2031C2.06685 36.5071 2.78903 36.8261 3.50231 37.1636C4.62221 37.6935 5.73595 38.2357 6.84284 38.7923C7.15294 38.9484 7.45413 38.9121 7.66839 38.7197C8.0483 38.3781 8.51241 38.2097 8.9423 37.9694C8.96831 37.955 8.98817 37.929 9.06005 37.864C8.78692 37.5402 8.5131 37.2129 8.23587 36.8884C8.13524 36.7706 8.02023 36.6652 7.92371 36.544C7.54654 36.0737 7.17484 35.5986 6.79972 35.1262C6.62037 34.9003 6.49578 34.6552 6.5567 34.3574C6.63748 33.9631 6.849 33.6653 7.25288 33.566C7.66017 33.4654 8.02708 33.5633 8.29611 33.9042C8.64043 34.3423 8.969 34.7921 9.31332 35.2296C9.49541 35.4603 9.69803 35.6746 9.88628 35.9005C10.2135 36.2921 10.5366 36.6864 10.8597 37.0774C12.7291 36.4585 14.5767 35.7917 16.4578 35.2392C18.341 34.686 20.257 34.2465 22.2647 33.7303C21.9998 33.6208 21.8266 33.54 21.6479 33.4763C21.0065 33.247 20.3583 33.0341 19.7217 32.7917C19.4821 32.7006 19.2883 32.7178 19.0611 32.83C18.2013 33.2565 17.3299 33.6584 16.4674 34.0788C16.2032 34.2075 15.956 34.3704 15.6959 34.508C15.3708 34.6799 15.0408 34.686 14.7232 34.4888C14.2871 34.2177 14.1543 33.5776 14.4466 33.1292C14.6013 32.891 14.8156 32.7287 15.088 32.6164C15.7014 32.3645 16.3024 32.0804 16.9979 31.7696C16.7213 31.6484 16.516 31.5745 16.3264 31.4725C15.5953 31.0774 14.858 31.0268 14.0476 31.2513C12.929 31.5608 11.7859 31.7812 10.6509 32.0249C10.2422 32.1126 9.82603 32.1632 9.41189 32.22C9.2743 32.2392 9.13192 32.2365 8.99364 32.2255C8.52884 32.1865 8.14825 31.799 8.11744 31.3438C8.08938 30.9207 8.46244 30.4538 8.9067 30.3791C9.45638 30.2874 10.0109 30.2244 10.5585 30.1231C10.9802 30.0457 11.395 29.928 11.8105 29.7431C11.4484 29.6849 11.0876 29.6199 10.7248 29.5699C9.14493 29.3508 7.56502 29.1379 5.9858 28.9175C5.80303 28.8922 5.6141 28.8593 5.44639 28.7874C5.02677 28.608 4.83305 28.1884 4.92204 27.7078C4.99528 27.3093 5.34371 27.0109 5.79345 27.0239C6.1939 27.0348 6.59367 27.0985 6.99344 27.145C7.76217 27.2354 8.53022 27.3312 9.29826 27.4223C9.40026 27.4346 9.5043 27.4333 9.7124 27.4428C9.23802 27.0663 8.84715 26.7493 8.44876 26.4413C7.89702 26.0154 7.33844 25.5978 6.78533 25.1734C6.33628 24.8283 6.22881 24.2998 6.51221 23.861C6.80519 23.4071 7.36651 23.2831 7.85869 23.6049C8.24613 23.8589 8.60072 24.1642 8.97174 24.4436C10.1991 25.3657 11.4272 26.2865 12.6552 27.2073C12.6977 27.2388 12.7456 27.2628 12.8558 27.2381C12.7018 26.9766 12.5635 26.7048 12.391 26.4563C12.0371 25.9477 11.6729 25.4458 11.2971 24.9529C10.8186 24.3251 11.0883 23.4892 11.8338 23.3571C12.2609 23.2811 12.5922 23.4803 12.8311 23.8192C13.3137 24.5031 13.7963 25.187 14.255 25.8867C14.8156 26.7425 15.3489 27.616 15.902 28.4773C15.9834 28.6039 16.0854 28.7477 16.2141 28.8107C16.7364 29.0667 17.2724 29.294 17.909 29.5795C17.7509 29.1366 17.64 28.8066 17.5154 28.4807C17.3888 28.1487 17.2176 27.8296 17.1273 27.4887C17.0636 27.2457 17.0533 26.965 17.1047 26.7185C17.1944 26.2906 17.5565 26.0257 17.972 26.0031C18.3978 25.9805 18.7441 26.201 18.9043 26.6295C19.0611 27.0492 19.1911 27.4784 19.3342 27.9022C19.5916 28.6656 19.862 29.4241 20.1023 30.1922C20.1926 30.4804 20.3323 30.6632 20.6191 30.7865C21.2174 31.0418 21.7951 31.3431 22.3838 31.6203C22.5611 31.7032 22.7452 31.7703 23.0232 31.8846C21.9669 30.1005 20.9223 28.4389 19.9831 26.7192C19.0488 25.0084 18.2212 23.2393 17.3278 21.4587C16.8863 21.4963 16.4106 21.5271 15.9362 21.5792C15.0607 21.6743 14.1858 21.7832 13.3103 21.8838C12.7565 21.9475 12.2863 21.6291 12.1904 21.1314C12.0966 20.6426 12.3581 20.149 12.8174 20.0244C13.0673 19.9566 13.3377 19.9642 13.5992 19.9416C13.6916 19.934 13.7888 19.9539 13.8778 19.9347C14.6541 19.7732 15.4413 19.7218 16.2305 19.6862C16.364 19.6807 16.4948 19.6212 16.5865 19.5972C16.4729 19.068 16.3818 18.5682 16.2552 18.0781C16.1785 17.7789 16.0505 17.5181 15.698 17.403C14.4768 17.0046 13.261 16.589 12.0515 16.1564C11.3231 15.8962 10.5989 15.6189 9.89586 15.2985C9.34207 15.0473 9.29827 14.5544 9.42833 14.1196C9.5536 13.7027 10.0122 13.4522 10.477 13.5542C10.8227 13.6302 11.1588 13.7582 11.4915 13.8828C12.0562 14.0943 12.6107 14.3319 13.1768 14.54C13.8271 14.7789 14.4857 14.998 15.2448 15.2623C15.0983 14.7906 14.9867 14.4113 14.8621 14.0375C14.6855 13.5083 14.511 12.9784 14.3132 12.4567C14.0996 11.8926 13.8484 11.3429 13.6389 10.7774C13.5663 10.5809 13.5218 10.3516 13.5465 10.1469C13.5958 9.73267 13.9285 9.42322 14.3043 9.37119C14.7341 9.31094 15.1325 9.48826 15.3044 9.88807C15.6151 10.6131 15.9081 11.347 16.1737 12.0898C16.6016 13.2851 17.0116 14.4873 17.4045 15.6942C17.5065 16.0071 17.7262 16.1557 17.9898 16.2276C18.5066 16.3679 19.0364 16.4603 19.5923 16.5794C19.7703 16.1906 19.6984 15.7367 19.7449 15.3006C19.7696 15.0699 19.7853 14.8392 19.8113 14.6091C19.8702 14.0875 19.9701 13.5672 19.9825 13.0448C19.9927 12.593 20.4712 12.1418 20.9436 12.1589C21.47 12.1774 21.8862 12.5724 21.8793 13.1146C21.8738 13.5309 21.8225 13.9471 21.7766 14.362C21.6692 15.3437 21.5521 16.3248 21.4385 17.3147C23.2032 18.1992 24.9823 19.0317 26.7039 19.971C28.4269 20.911 30.0923 21.9577 31.8804 23.0155C31.7873 22.7759 31.7366 22.6211 31.6675 22.4746C31.3567 21.8153 31.0322 21.1622 30.7303 20.4995C30.6365 20.2935 30.4948 20.2031 30.2902 20.1333C29.3681 19.8183 28.4529 19.4829 27.5322 19.1618C27.3138 19.0858 27.0879 19.0242 26.8607 18.9804C26.1693 18.8476 25.866 18.2081 26.0529 17.7077C26.2665 17.1333 26.9366 16.8862 27.5726 17.1449C28.1455 17.3784 28.7253 17.594 29.3031 17.8145C29.3544 17.8343 29.4133 17.8364 29.5632 17.8638C29.2921 17.2593 29.082 16.7143 28.8041 16.2063C28.6945 16.0078 28.4447 15.8743 28.2386 15.7429C27.1947 15.074 26.1385 14.4236 25.0973 13.7506C24.6681 13.4734 24.2656 13.1543 23.8521 12.8531C23.7892 12.8079 23.7282 12.7586 23.6735 12.7046C23.2792 12.3143 23.2408 11.753 23.5804 11.3634C23.9185 10.9759 24.4812 10.9376 24.9248 11.2662C25.4355 11.6448 25.9441 12.0254 26.4636 12.3903C26.6991 12.5553 26.9592 12.6854 27.2748 12.8702C27.2413 12.7436 27.2419 12.6991 27.2207 12.671C26.12 11.2094 25.0179 9.74978 23.9165 8.28882C23.8042 8.14026 23.6844 7.99581 23.59 7.8363C23.3086 7.36118 23.4216 6.80322 23.8467 6.51705C24.2711 6.23088 24.8331 6.33631 25.1699 6.77241C25.6052 7.33721 26.0317 7.90886 26.4677 8.47229C26.7669 8.85978 27.0763 9.24043 27.4548 9.59164C27.3857 9.0015 27.322 8.41068 27.2447 7.82191C27.1646 7.20987 27.0653 6.59989 26.9852 5.98717C26.9195 5.48329 27.2666 4.99105 27.7328 4.90479C28.2633 4.80553 28.7431 5.09785 28.8513 5.63664C28.9492 6.12067 28.9861 6.61632 29.0546 7.1065C29.2702 8.6633 29.4886 10.2201 29.7932 11.7865C29.824 11.7112 29.8699 11.6386 29.8842 11.5606C30.0458 10.7096 30.2115 9.86 30.3559 9.00629C30.4285 8.57773 30.6537 8.2943 31.0589 8.16833C31.4409 8.04852 31.7592 8.18544 32.02 8.47298C32.1733 8.64276 32.2507 8.84814 32.2171 9.07338C32.0891 9.94489 31.9803 10.8205 31.8092 11.6845C31.6045 12.7162 31.3416 13.7369 31.1075 14.7632C31.0397 15.0596 31.0726 15.3444 31.1958 15.6265C31.38 16.0496 31.5449 16.4809 31.7626 17.0183C32.0768 16.3063 32.3534 15.697 32.6149 15.0815C32.8421 14.5468 33.2186 14.2798 33.7539 14.3011C34.3577 14.3257 34.7677 14.8878 34.5986 15.4745C34.5562 15.6217 34.4768 15.7586 34.4083 15.8976C33.8641 16.9923 33.3158 18.0856 32.7785 19.1837C32.7292 19.2837 32.7025 19.4302 32.7374 19.5301C33.0324 20.379 33.3432 21.2218 33.6512 22.0659C33.6615 22.0926 33.6903 22.1118 33.7546 22.1843C34.2447 20.2613 34.6739 18.3587 35.2222 16.4911C35.7753 14.6071 36.4469 12.758 37.078 10.8595C36.7104 10.5535 36.3243 10.2242 35.9287 9.90519C35.2784 9.38078 34.6253 8.86047 33.9682 8.34427C33.6191 8.06974 33.4548 7.72607 33.5499 7.28518C33.6321 6.9018 33.9689 6.61289 34.3652 6.55538C34.6637 6.51225 34.9108 6.61359 35.136 6.80185C35.9321 7.46661 36.7289 8.1293 37.5284 8.78996C37.6332 8.87621 37.7523 8.94537 37.896 9.04395C38.0206 8.81802 38.1247 8.61674 38.2417 8.42232C38.3759 8.19982 38.5183 7.98143 38.6627 7.76441C38.8592 7.46866 38.9694 7.18112 38.7866 6.81897C38.2136 5.68525 37.6517 4.54537 37.1081 3.39728C36.7775 2.6983 36.4701 1.9863 36.1861 1.26746C35.9985 0.792343 36.2251 0.278198 36.6502 0.0858231C37.0876 -0.11203 37.6085 0.0379028 37.8645 0.476738C38.0583 0.810143 38.2034 1.1723 38.3643 1.52419C38.879 2.649 39.391 3.77518 39.9332 4.96436C40.0448 4.82948 40.1132 4.77403 40.1475 4.70146C40.6526 3.62252 41.1517 2.54015 41.6569 1.46053C41.8205 1.11 41.9663 0.744423 42.1778 0.424026C42.568 -0.168167 43.4414 -0.127777 43.7611 0.479469C43.9145 0.770432 43.9049 1.08193 43.7782 1.37836C43.1129 2.93037 42.4345 4.47623 41.622 5.95978C41.444 6.28497 41.3098 6.63412 41.1537 6.97163C41.0332 7.23315 41.125 7.50084 41.2804 7.66446C41.6343 8.03757 41.7917 8.5079 42.0292 8.9392C42.0436 8.96453 42.0737 8.98096 42.1463 9.04736C42.4646 8.779 42.7911 8.50584 43.1149 8.22995C43.2443 8.11973 43.3641 7.99649 43.4969 7.89037C43.9432 7.53233 44.3991 7.18591 44.842 6.82307C45.3082 6.44038 45.8818 6.46023 46.248 6.88674C46.6047 7.30299 46.5451 7.92666 46.0913 8.29361C45.6586 8.64413 45.2041 8.96726 44.766 9.31094C44.5353 9.49305 44.3224 9.69706 44.0965 9.88602C43.7057 10.2126 43.3107 10.535 42.9233 10.8547C43.5462 12.734 44.2136 14.5824 44.7667 16.4644C45.3157 18.332 45.749 20.2346 46.2569 22.2152C46.3582 22.0139 46.4431 21.8804 46.4951 21.7359C46.7471 21.0363 46.9832 20.3304 47.2413 19.6335C47.3138 19.4356 47.2769 19.2796 47.1913 19.1036C46.7573 18.2122 46.335 17.3161 45.9016 16.4247C45.8072 16.2296 45.6819 16.0509 45.5792 15.8599C45.2246 15.2034 45.3561 14.5934 45.927 14.3702C46.6108 14.1025 47.1639 14.527 47.3837 15.0726C47.6301 15.6867 47.9149 16.2858 48.2215 16.9765C48.3057 16.8191 48.3584 16.7376 48.3947 16.6486C48.5487 16.2769 48.7069 15.9058 48.8465 15.5286C48.9321 15.2958 48.9608 15.0624 48.8985 14.8029C48.6172 13.6281 48.3495 12.4506 48.099 11.2696C47.9669 10.6494 47.8683 10.0216 47.7773 9.39378C47.7485 9.20004 47.7608 8.98643 47.8108 8.7968C47.9197 8.37987 48.3502 8.09507 48.7637 8.1293C49.2073 8.16559 49.5536 8.51543 49.6303 8.96384C49.7741 9.80181 49.9329 10.6377 50.0896 11.4736C50.1088 11.577 50.1526 11.6763 50.2587 11.7865C50.2875 11.6222 50.3183 11.4586 50.3456 11.2943C50.3758 11.1108 50.4079 10.928 50.4326 10.7438C50.6318 9.25687 50.8276 7.76988 51.0295 6.28291C51.063 6.03851 51.0966 5.78999 51.1712 5.55585C51.3273 5.06499 51.7613 4.81785 52.261 4.90411C52.5895 4.96162 53.0441 5.31351 52.9818 5.8475C52.9038 6.50746 52.8394 7.1688 52.7627 7.82877C52.6929 8.42643 52.6128 9.02203 52.5375 9.61901C52.5683 9.64708 52.5991 9.67448 52.6292 9.70255C52.6785 9.61491 52.7176 9.51974 52.7778 9.44102C53.4569 8.55582 54.14 7.67336 54.8211 6.78884C55.1641 6.34453 55.7035 6.22814 56.1382 6.50747C56.5865 6.795 56.7173 7.37144 56.3955 7.85341C56.1039 8.29088 55.7569 8.69069 55.4386 9.11104C54.522 10.3214 53.6074 11.5339 52.7353 12.8127C52.8216 12.7819 52.9181 12.7669 52.9914 12.7169C53.6814 12.2445 54.3776 11.7803 55.0511 11.286C55.696 10.8137 56.5017 11.0738 56.6406 11.8337C56.7152 12.2418 56.5359 12.569 56.2142 12.7997C55.5344 13.2872 54.8499 13.7698 54.1503 14.2285C53.2816 14.7974 52.3931 15.3362 51.521 15.9003C51.3711 15.9975 51.2177 16.1358 51.1411 16.2919C50.8981 16.7876 50.6913 17.301 50.434 17.8905C50.7769 17.7755 51.0384 17.6961 51.293 17.6002C51.6688 17.4585 52.044 17.3127 52.4123 17.1532C52.7134 17.0231 53.0194 17.0217 53.3227 17.1025C53.7033 17.2031 53.9798 17.5673 53.9976 17.9603C54.0154 18.3745 53.832 18.675 53.4644 18.8647C53.4233 18.8859 53.3809 18.9058 53.3371 18.9208C52.2685 19.2857 51.2095 19.6814 50.1273 19.9991C49.6091 20.1511 49.2771 20.3845 49.0758 20.9028C48.8082 21.5908 48.4502 22.2439 48.1688 22.9518C51.5511 20.9377 54.9026 18.8948 58.5525 17.4113C58.5046 16.8759 58.4697 16.4001 58.4177 15.9263C58.3184 15.0363 58.202 14.1477 58.1062 13.257C58.0453 12.6888 58.456 12.2075 59.0057 12.161C59.5259 12.1172 60.0031 12.5841 60.0339 13.0804C60.0989 14.1285 60.2152 15.1739 60.3159 16.2193C60.3282 16.3522 60.372 16.4816 60.4062 16.6342C60.6828 16.5466 60.9142 16.4644 61.151 16.4015C61.3728 16.3419 61.5994 16.2967 61.826 16.2577C62.1771 16.1981 62.4619 16.0845 62.5913 15.6963C62.9924 14.4914 63.4066 13.2913 63.8351 12.0959C64.0959 11.3682 64.3758 10.6459 64.6777 9.93394C64.8865 9.44035 65.404 9.23837 65.8736 9.41843C66.3233 9.59095 66.5684 10.062 66.4363 10.5569C66.3528 10.8705 66.233 11.1751 66.1173 11.4798C65.9078 12.0282 65.6799 12.5704 65.478 13.1215C65.2329 13.789 65.007 14.4633 64.738 15.2335C65.1247 15.1199 65.4314 15.0487 65.7237 14.9405C66.8409 14.527 67.9532 14.0998 69.0683 13.6808C69.2128 13.6267 69.3627 13.5788 69.514 13.5514C70.0055 13.4631 70.4319 13.7061 70.588 14.1518C70.7495 14.6119 70.5558 15.111 70.0821 15.3136C69.3716 15.6176 68.6508 15.9003 67.9231 16.1612C66.7135 16.5938 65.4992 17.0142 64.278 17.4133C63.9569 17.5181 63.8392 17.7529 63.7687 18.0151C63.6331 18.5189 63.5393 19.0338 63.4154 19.6013C63.5407 19.6294 63.6968 19.6814 63.857 19.6965C64.9036 19.7957 65.9517 19.8854 66.9983 19.9826C67.4884 20.0285 67.8765 20.4947 67.841 20.9822C67.8006 21.5217 67.3529 21.9249 66.7977 21.8886C66.3507 21.8598 65.9058 21.7962 65.4602 21.7448C64.9529 21.6866 64.4477 21.6195 63.9405 21.5661C63.5257 21.5223 63.1095 21.4936 62.6734 21.4559C61.7951 23.2099 60.9648 24.9899 60.0263 26.7103C59.0926 28.4225 58.0508 30.0758 57.0281 31.8024C57.1533 31.7826 57.243 31.7874 57.3149 31.7538C58.0734 31.4006 58.8325 31.0494 59.5807 30.6756C59.6991 30.616 59.797 30.4592 59.8456 30.3264C60.1913 29.3817 60.5253 28.4328 60.8539 27.4819C60.9395 27.234 60.9812 26.9711 61.0648 26.7219C61.2462 26.1804 61.6535 25.9271 62.1641 26.0209C62.6351 26.1079 62.924 26.496 62.9445 27.0321C62.963 27.5216 62.6755 27.9118 62.5399 28.3506C62.4229 28.7285 62.2668 29.0934 62.1949 29.5357C62.7391 29.2906 63.2881 29.0565 63.8227 28.7915C63.9494 28.7292 64.0411 28.5745 64.1226 28.4458C64.6962 27.5428 65.2493 26.6268 65.8353 25.732C66.2768 25.0583 66.7436 24.3997 67.2256 23.7535C67.4713 23.4235 67.8225 23.2626 68.2503 23.3783C68.6323 23.481 68.8595 23.737 68.9389 24.1191C69.0108 24.4668 68.8561 24.7393 68.6556 25.0152C68.1914 25.6539 67.7527 26.3112 67.307 26.9636C67.2584 27.0341 67.2331 27.1197 67.1571 27.284C67.2892 27.2238 67.3426 27.2101 67.3837 27.1793C68.8315 26.0866 70.2779 24.9919 71.7257 23.8993C71.8865 23.7781 72.0461 23.6501 72.2213 23.5543C72.6738 23.3085 73.1783 23.4249 73.4623 23.8233C73.7567 24.2354 73.6903 24.7756 73.2816 25.1179C73.0215 25.3363 72.7347 25.5232 72.4657 25.732C71.8037 26.2455 71.1452 26.763 70.4867 27.2799C70.4552 27.3052 70.4374 27.347 70.3655 27.4483C70.881 27.3929 71.3335 27.3511 71.7846 27.2957C72.4917 27.2087 73.1954 27.0957 73.9046 27.0314C74.1551 27.0088 74.4412 27.0423 74.6651 27.1478C74.9978 27.3052 75.1319 27.6291 75.1052 28.0035C75.0779 28.3801 74.88 28.6471 74.5439 28.7936C74.3769 28.8668 74.1866 28.8949 74.0031 28.9189C72.8059 29.0749 71.6073 29.2187 70.4107 29.3796C69.7659 29.4665 69.1245 29.5781 68.4824 29.6815C68.3934 29.6959 68.3078 29.7267 68.2133 29.8273C68.609 29.9259 69.0012 30.0423 69.4017 30.1183C69.9336 30.2189 70.4696 30.3127 71.0083 30.362C71.5368 30.4106 71.8989 30.9405 71.8736 31.3499C71.8427 31.8435 71.4341 32.2693 70.909 32.2166C70.0643 32.1317 69.2223 31.99 68.3886 31.823C67.3111 31.6066 66.2446 31.3342 65.1692 31.1041C64.9824 31.0637 64.7606 31.0706 64.5812 31.1322C64.0699 31.3068 63.5722 31.5211 63.0027 31.7463C63.3908 31.9346 63.7153 32.1016 64.0473 32.2509C64.3711 32.3967 64.7113 32.5076 65.0296 32.6644C65.4451 32.8704 65.71 33.1929 65.7038 33.6885C65.6963 34.3464 65.1275 34.7764 64.497 34.5874C64.3649 34.5477 64.243 34.4738 64.1178 34.4129C63.4771 34.1041 62.835 33.7981 62.1977 33.4832C61.7671 33.2702 61.3482 33.034 60.9135 32.8314C60.7697 32.7643 60.5726 32.7041 60.4364 32.7499C59.5999 33.0306 58.7736 33.3421 57.9447 33.6447C57.9043 33.6598 57.8714 33.6933 57.7948 33.7447C59.7313 34.2424 61.6466 34.6819 63.5291 35.2344C65.4109 35.7869 67.2591 36.453 69.1546 37.0801C69.7221 36.3777 70.3053 35.6575 70.8865 34.9359C71.1774 34.5737 71.4512 34.1972 71.7579 33.8494C72.1056 33.4558 72.7176 33.4215 73.103 33.7454C73.5246 34.1007 73.576 34.6737 73.2125 35.1153C72.5533 35.9156 71.8852 36.709 71.2239 37.5073C71.1267 37.6257 71.0446 37.7558 70.9412 37.8996C71.1986 38.0344 71.4334 38.1494 71.66 38.2788C71.8455 38.3856 72.0317 38.4966 72.2008 38.6273C72.5033 38.8621 72.8072 38.9799 73.1803 38.7813C73.5356 38.5924 73.9032 38.4274 74.2646 38.2515C75.4756 37.662 76.6543 37.0034 77.9262 36.544C78.1144 36.4763 78.289 36.3702 78.4718 36.2859C78.5703 36.2414 78.6703 36.1942 78.7743 36.1689C79.2925 36.0436 79.7874 36.2572 79.9264 36.7008C80.0647 37.1403 80.0099 37.5942 79.4746 37.8914C79.1638 38.0639 78.8332 38.1994 78.5108 38.3507C77.4046 38.8703 76.2977 39.3893 75.1915 39.9089C75.1655 39.9212 75.1463 39.9479 75.0922 39.9952C75.1853 40.0623 75.2586 40.1341 75.3462 40.1752C76.4257 40.6796 77.458 41.2843 78.5881 41.6801C78.8934 41.7873 79.1844 41.9435 79.4664 42.1037C79.9627 42.3858 80.1304 42.9089 79.8949 43.3758C79.6745 43.8147 79.1618 44.0043 78.6545 43.7933C77.9262 43.49 77.204 43.1705 76.4907 42.8327C75.3708 42.3024 74.2564 41.7614 73.1502 41.2036C72.8367 41.0452 72.5348 41.0979 72.3281 41.2862C71.9482 41.6314 71.4786 41.7882 71.0528 42.0347C71.0261 42.0497 71.0042 42.0721 70.9351 42.1291C71.2239 42.4693 71.5121 42.8089 71.8017 43.1472C71.9023 43.2649 72.0118 43.3751 72.1077 43.4962C72.4547 43.9324 72.7895 44.3779 73.1441 44.8074C73.5691 45.3235 73.5493 45.9094 73.0756 46.2785C72.6224 46.6318 72.018 46.4961 71.6148 45.9841C70.8023 44.9518 69.974 43.9311 69.1614 42.9164C67.2701 43.5435 65.4232 44.2115 63.5421 44.7641C61.6576 45.3179 59.7388 45.7554 57.7386 46.2689C57.9878 46.3737 58.1589 46.4545 58.3355 46.5181C58.9913 46.7542 59.6519 46.9767 60.3049 47.2211C60.5281 47.3054 60.7095 47.2827 60.921 47.1786C61.7958 46.7475 62.6803 46.3373 63.5578 45.9121C63.7803 45.8041 63.9932 45.6746 64.2027 45.5417C64.6948 45.2296 65.3294 45.3372 65.6087 45.8669C65.8757 46.3729 65.6299 47.0434 65.0693 47.3203C64.7927 47.4573 64.5018 47.5675 64.2191 47.6921C63.8371 47.86 63.4565 48.0304 62.9705 48.2468C63.6263 48.4965 64.1862 48.7287 64.7612 48.9169C64.9221 48.9696 65.1295 48.9086 65.3089 48.8698C66.5184 48.6021 67.7239 48.3173 68.9349 48.0571C69.4489 47.947 69.9726 47.8798 70.4929 47.8004C70.6298 47.7793 70.7714 47.7881 70.9104 47.7793C71.5087 47.7395 71.851 48.27 71.8729 48.6549C71.9002 49.1346 71.5217 49.5577 71.0049 49.6393C70.3621 49.7406 69.72 49.8406 69.08 49.9561C68.7925 50.0083 68.5118 50.0973 68.2168 50.2348C68.3208 50.2658 68.4235 50.3094 68.5296 50.3246C70.3238 50.5736 72.1179 50.8188 73.9121 51.0673C74.0812 51.0906 74.2516 51.1146 74.4138 51.1617C74.917 51.309 75.1997 51.78 75.0943 52.2771C74.9923 52.7603 74.4652 53.0917 73.9593 53.0192C72.8415 52.8603 71.7216 52.7165 70.6024 52.5681C70.5421 52.5598 70.4805 52.5667 70.3484 52.5667C70.4764 52.6858 70.5551 52.7713 70.6462 52.8411C71.5039 53.5051 72.365 54.166 73.2234 54.83C73.6643 55.1709 73.769 55.7165 73.4815 56.1513C73.1933 56.5867 72.6436 56.7153 72.1706 56.412C71.7811 56.1615 71.4266 55.8561 71.0548 55.5761C69.8535 54.6719 68.6514 53.768 67.4487 52.8652C67.3885 52.82 67.3193 52.7857 67.1811 52.7015C67.2413 52.8644 67.2591 52.9665 67.3118 53.0438C67.7568 53.6969 68.1976 54.3529 68.661 54.9915C68.8719 55.2819 69.0211 55.5686 68.9259 55.9349C68.8322 56.2984 68.6008 56.5305 68.2421 56.6257C67.8567 56.7284 67.5226 56.6011 67.2817 56.3072C66.9374 55.8884 66.6115 55.4523 66.3103 55.0019C65.9653 54.4863 65.6614 53.9448 65.3301 53.4209C64.9235 52.7788 64.5162 52.1373 64.0877 51.5104C63.9706 51.3393 63.7961 51.1804 63.6119 51.0879C63.1841 50.8737 62.7337 50.7025 62.2908 50.5177C62.2545 50.5025 62.2059 50.5156 62.1148 50.5156C62.3537 51.1449 62.5646 51.7554 62.8192 52.3469C62.9363 52.6194 62.9589 52.8857 62.9315 53.1628C62.8904 53.5758 62.568 53.9017 62.1552 53.9795C61.7329 54.059 61.3475 53.8736 61.1469 53.4867C61.1045 53.4054 61.0784 53.315 61.0483 53.2265C60.6486 52.0394 60.2529 50.8504 59.8429 49.6668C59.797 49.5338 59.6936 49.3803 59.5745 49.321C58.8263 48.9477 58.0658 48.5979 57.308 48.2427C57.243 48.212 57.1691 48.2008 57.0021 48.1524C58.046 49.9158 59.0892 51.5733 60.0256 53.2896C60.9593 55.0003 61.7849 56.7696 62.6775 58.5523C63.5407 58.4646 64.4299 58.3749 65.3185 58.2832C65.8414 58.2289 66.3637 58.1428 66.8874 58.1249C67.3926 58.1073 67.7732 58.4795 67.8369 58.971C67.8916 59.3901 67.5925 59.8803 67.1804 59.9825C66.9278 60.0448 66.6588 60.0383 66.3973 60.0685C66.0906 60.1041 65.7853 60.1541 65.478 60.183C65.0008 60.2266 64.5216 60.2547 64.0438 60.2966C63.8316 60.3151 63.6208 60.3499 63.3668 60.3828C63.4504 60.6628 63.5263 60.8936 63.5873 61.1276C63.6489 61.3653 63.7071 61.6049 63.7461 61.8464C63.8036 62.2053 63.9439 62.4757 64.3197 62.6016C65.5081 63.0009 66.6957 63.4047 67.8772 63.8264C68.6193 64.092 69.3558 64.3776 70.0814 64.6849C70.5538 64.8855 70.7495 65.388 70.5894 65.8474C70.4285 66.3087 69.9774 66.5684 69.4722 66.4349C69.0704 66.3287 68.6781 66.1766 68.2955 66.0118C67.1729 65.5278 66.0016 65.1874 64.7578 64.7383C64.8927 65.1777 64.9926 65.5283 65.1083 65.8733C65.2959 66.4306 65.4834 66.9884 65.6915 67.5383C65.8941 68.0745 66.1262 68.5981 66.3377 69.1308C66.3945 69.2739 66.4397 69.4252 66.4616 69.5772C66.5239 70.0133 66.2741 70.4321 65.8763 70.5826C65.4711 70.7362 65.0173 70.5944 64.766 70.2302C64.7133 70.1543 64.6675 70.0708 64.6339 69.9852C64.0076 68.3852 63.371 66.7887 62.9048 65.1307C62.8131 64.8041 62.6577 64.4953 62.544 64.1741C62.4455 63.8949 62.1894 63.8229 61.9629 63.7615C61.4611 63.6251 60.947 63.536 60.3946 63.4183C60.3727 63.5162 60.3289 63.6456 60.3166 63.7786C60.2159 64.8239 60.0989 65.8693 60.0345 66.9173C60.0072 67.3685 59.5725 67.8814 59.0077 67.8362C58.4745 67.7937 58.0651 67.3412 58.1062 66.7909C58.1397 66.345 58.2102 65.9014 58.2588 65.4564C58.3232 64.8574 58.38 64.2578 58.4437 63.6588C58.4779 63.3368 58.5197 63.0159 58.5594 62.6837C56.7946 61.7994 55.0162 60.9668 53.296 60.0274C51.5716 59.0861 49.9048 58.038 48.1168 56.9803C48.2037 57.2042 48.2517 57.3528 48.3181 57.4938C48.6357 58.1661 48.9622 58.8349 49.2764 59.5093C49.3613 59.692 49.4831 59.7894 49.6775 59.8549C50.6297 60.1782 51.5744 60.5246 52.5245 60.8532C52.773 60.9387 53.0359 60.9797 53.2843 61.0639C53.8012 61.2399 54.0599 61.6397 53.9901 62.1246C53.9196 62.6099 53.5082 62.9431 52.9647 62.9536C52.48 62.9632 52.0871 62.6776 51.6483 62.5385C51.2718 62.4189 50.9049 62.2681 50.4689 62.2026C50.6982 62.7187 50.896 63.2542 51.1726 63.7443C51.2992 63.9681 51.5662 64.1283 51.7955 64.2762C52.8387 64.9472 53.897 65.5941 54.9368 66.2691C55.3913 66.564 55.8233 66.8962 56.2511 67.2302C56.5489 67.4623 56.7132 67.7787 56.6406 68.1667C56.5003 68.9233 55.685 69.1936 55.0518 68.7113C54.5836 68.3537 54.1106 68.0026 53.6273 67.6664C53.3487 67.4725 53.0448 67.3144 52.7025 67.1789C52.7504 67.2604 52.7908 67.3474 52.8476 67.4228C53.9593 68.8952 55.073 70.3658 56.1854 71.8377C56.2607 71.9369 56.336 72.0356 56.3997 72.1418C56.6974 72.64 56.5872 73.2042 56.1409 73.4922C55.7007 73.7757 55.1716 73.6669 54.8266 73.2171C54.4296 72.701 54.038 72.1813 53.6403 71.6666C53.3001 71.2264 52.9544 70.791 52.5416 70.2644C52.5765 70.6308 52.5957 70.8915 52.6286 71.1509C52.7415 72.0562 52.8723 72.959 52.9667 73.8661C52.9927 74.118 52.9736 74.4058 52.8736 74.6329C52.7176 74.9896 52.3862 75.1278 51.9899 75.1006C51.6086 75.0738 51.3375 74.8788 51.2075 74.5371C51.1096 74.2812 51.0665 73.999 51.0316 73.7238C50.8953 72.6504 50.7858 71.5727 50.6386 70.5006C50.5339 69.736 50.3853 68.9773 50.1834 68.2018C50.0903 68.5604 49.976 68.9166 49.9082 69.2806C49.798 69.8729 49.7172 70.4712 49.6255 71.0675C49.5557 71.52 49.1333 71.8869 48.6863 71.8794C48.2133 71.8727 47.7821 71.4791 47.7759 70.9942C47.7718 70.6252 47.8101 70.25 47.8772 69.8873C48.0011 69.2177 48.1599 68.555 48.305 67.8897C48.5063 66.9668 48.7158 66.0458 48.9033 65.1202C48.9382 64.9478 48.9273 64.7445 48.8691 64.5787C48.6966 64.0832 48.4899 63.5991 48.2585 63.0137C48.0675 63.3977 47.9053 63.7005 47.7643 64.0126C47.6116 64.3508 47.4864 64.7007 47.3364 65.0395C47.1201 65.5278 46.5937 65.792 46.0714 65.6864C45.6196 65.5955 45.2822 65.0833 45.3841 64.6274C45.4143 64.4931 45.4677 64.361 45.5286 64.2372C46.0776 63.1274 46.6348 62.021 47.1756 60.9072C47.244 60.7668 47.2961 60.5675 47.2509 60.4301C46.9887 59.6359 46.6971 58.8512 46.4123 58.0648C46.387 57.9936 46.3418 57.93 46.2617 57.7791C45.7558 59.7442 45.3198 61.6488 44.7701 63.5197C44.217 65.4024 43.551 67.2516 42.9253 69.1437C43.3004 69.4547 43.6879 69.7831 44.0842 70.1021C44.7338 70.626 45.3896 71.1443 46.0427 71.6644C46.415 71.9602 46.567 72.3587 46.4349 72.775C46.3172 73.1446 46.0522 73.3637 45.6675 73.4396C45.3876 73.4957 45.1404 73.4206 44.9282 73.2473C44.1499 72.6106 43.3778 71.9658 42.6022 71.3256C42.4502 71.1996 42.2907 71.0819 42.1086 70.9402C41.9786 71.1825 41.8766 71.3887 41.7589 71.5858C41.6254 71.8096 41.4796 72.026 41.3365 72.2431C41.1517 72.5236 41.0223 72.8018 41.2064 73.1446C41.4104 73.5267 41.585 73.9244 41.7746 74.3146C42.3565 75.5127 43.0054 76.6786 43.462 77.9356C43.5516 78.1821 43.7009 78.4065 43.794 78.6523C44.0801 79.4088 43.5523 80.1009 42.7904 79.9811C42.4735 79.9311 42.2428 79.7506 42.1059 79.4751C41.9197 79.1015 41.7664 78.7119 41.5946 78.3313C41.4227 77.9505 41.2489 77.5705 41.0695 77.1934C40.7827 76.5917 40.4925 75.9919 40.2009 75.3928C40.1543 75.2977 40.0934 75.2094 40.0078 75.0642C39.7504 75.4389 39.58 75.8092 39.402 76.174C39.1706 76.6471 38.9338 77.118 38.7181 77.5986C38.4834 78.1203 38.2732 78.653 38.0473 79.1794C37.9925 79.3074 37.9296 79.4342 37.8529 79.5492C37.5695 79.9714 37.0554 80.1161 36.6276 79.9017C36.2203 79.6984 36.0019 79.2095 36.1806 78.753C36.4612 78.0321 36.7665 77.3194 37.0979 76.6203C37.6475 75.4586 38.2184 74.3058 38.7976 73.1577C38.9536 72.8488 38.9078 72.5482 38.7188 72.3362C38.3793 71.9548 38.2095 71.4906 37.9706 71.0608C37.957 71.0367 37.9255 71.0223 37.881 70.9859C37.486 71.1619 37.2177 71.516 36.8809 71.778C36.7474 71.8829 36.631 72.0102 36.4982 72.1164C36.0628 72.464 35.6179 72.7996 35.1873 73.1529C34.6924 73.5594 34.1195 73.5479 33.7478 73.1064C33.3692 72.6565 33.4787 72.0458 33.986 71.6419C34.7602 71.025 35.5207 70.3912 36.2908 69.7689C36.5434 69.5648 36.8076 69.3753 37.0849 69.1643C36.4653 67.2982 35.7966 65.4537 35.2448 63.575C34.691 61.6905 34.2543 59.7707 33.7382 57.7593C33.6355 57.988 33.5561 58.1388 33.4986 58.2968C33.2515 58.982 33.0194 59.6728 32.7627 60.3542C32.6888 60.5504 32.7168 60.7045 32.8024 60.8812C33.2419 61.7862 33.6697 62.6976 34.1106 63.6026C34.2324 63.8524 34.3994 64.0805 34.5199 64.3316C34.7362 64.7801 34.6411 65.2243 34.2899 65.5085C33.9511 65.7824 33.3863 65.7926 33.042 65.4852C32.864 65.3264 32.7175 65.1106 32.6135 64.8929C32.3342 64.3078 32.085 63.708 31.7975 63.0527C31.7167 63.1801 31.6538 63.2542 31.6175 63.3397C31.4566 63.7259 31.3033 64.1147 31.1472 64.5028C31.0315 64.791 31.074 65.0772 31.1417 65.3703C31.4238 66.5921 31.7154 67.8122 31.9659 69.041C32.0919 69.6606 32.1692 70.2946 32.2103 70.9258C32.2445 71.4502 31.8311 71.8583 31.3355 71.8794C30.8618 71.8992 30.4408 71.5002 30.3559 70.9977C30.2053 70.1139 30.0314 69.2335 29.8651 68.3523C29.8575 68.3098 29.8302 68.2708 29.7809 68.158C29.7405 68.2895 29.7097 68.3585 29.6981 68.4313C29.557 69.3012 29.4058 70.1706 29.2846 71.0443C29.1607 71.9308 29.069 72.8221 28.9601 73.7108C28.9334 73.9258 28.9081 74.1421 28.8581 74.3523C28.7253 74.9101 28.2468 75.2072 27.6985 75.0869C27.2378 74.9856 26.9202 74.4844 26.9887 73.9779C27.142 72.844 27.2926 71.7109 27.4425 70.5773C27.45 70.5199 27.4432 70.461 27.4432 70.4027C27.4151 70.396 27.3871 70.3883 27.359 70.3816Z" fill="white"/>
</svg>
