<svg width="124" height="133" viewBox="0 0 124 133" fill="none" xmlns="http://www.w3.org/2000/svg">
<path d="M64.2813 53.9417C63.7805 50.5781 63.0872 47.2649 62.2186 43.9716C61.3301 47.2596 60.6314 50.5714 60.1613 53.9417C61.5625 53.9417 62.892 53.9417 64.2813 53.9417ZM42.6133 55.2606C45.1249 57.7008 47.6896 59.9299 50.2902 62.0158C50.9875 60.8043 51.6662 59.6247 52.3449 58.4451C49.7257 57.3399 43.6878 55.3442 42.6133 55.2606ZM52.3515 74.5706C51.6396 73.33 50.9702 72.1664 50.2915 70.9828C47.691 73.0793 45.1209 75.3031 42.7236 77.7432C46.0121 76.8754 49.2104 75.798 52.3515 74.5706ZM72.067 58.4265C72.7643 59.6459 73.4364 60.8229 74.1244 62.0251C76.7396 59.9233 79.303 57.6835 81.7189 55.25C78.4344 56.1125 75.2401 57.2071 72.067 58.4265ZM81.7083 77.7445C79.2977 75.3124 76.7356 73.0753 74.1244 70.9828C73.4338 72.1876 72.7604 73.3619 72.0684 74.5706C75.1949 75.79 78.4065 76.8794 81.7083 77.7445ZM60.1413 79.0542C60.6752 82.4364 61.3008 85.7668 62.2305 89.0429C63.0739 85.727 63.7965 82.4098 64.2786 79.0542C62.8933 79.0542 61.5598 79.0542 60.1413 79.0542ZM64.2069 36.5013C64.4234 37.4168 64.616 38.2275 64.8059 39.0396C65.6227 42.5452 66.4595 46.0468 67.2484 49.5577C67.5964 51.1075 67.8368 52.6798 68.1476 54.2376C68.4079 55.5366 68.55 55.6361 69.748 55.2527C71.0045 54.852 72.2344 54.3637 73.4935 53.9683C77.0477 52.8537 80.6099 51.767 84.1708 50.6736C85.1589 50.3711 86.1511 50.0858 87.2123 49.7713C79.9883 44.5156 72.3872 40.1409 64.2069 36.5013ZM60.1852 36.6286C60.1427 36.5729 60.1015 36.5159 60.059 36.4601C56.1276 38.4518 52.1616 40.3784 48.2794 42.4589C45.4185 43.9915 37.7442 49.2539 37.286 49.8058C38.3406 50.111 39.3792 50.4029 40.4139 50.7134C43.2588 51.5693 46.1104 52.4065 48.9434 53.3022C50.86 53.9072 52.742 54.6197 54.6506 55.2474C55.8566 55.6428 55.9576 55.5897 56.2298 54.3384C56.6575 52.3786 56.9962 50.3989 57.4318 48.4405C58.1079 45.3966 58.833 42.3647 59.541 39.3288C59.7508 38.4279 59.97 37.5282 60.1852 36.6286ZM64.2149 96.3646C64.2613 96.4243 64.3065 96.4853 64.353 96.5464C68.2831 94.5561 72.2995 92.717 76.118 90.5316C79.9312 88.3502 83.5173 85.7788 87.2495 83.3041C87.0436 83.198 86.9692 83.1423 86.8856 83.1184C84.9212 82.5585 82.9395 82.0489 80.9924 81.4319C78.0731 80.5071 75.1776 79.504 72.2689 78.5433C71.2994 78.2236 70.3258 77.9144 69.343 77.6384C68.6178 77.434 68.4863 77.5097 68.311 78.2076C68.0546 79.2253 67.8262 80.2497 67.6137 81.2767C66.9788 84.3298 66.3931 87.3936 65.7197 90.4374C65.2801 92.4264 64.7209 94.3902 64.2149 96.3646ZM35.1689 79.8224C36.0866 78.9414 36.8583 78.1877 37.6446 77.4487C39.7657 75.4504 41.8749 73.4375 44.0265 71.4737C45.534 70.0978 47.1199 68.8067 48.6446 67.4493C49.6275 66.5762 49.6261 66.4289 48.6539 65.5612C47.1982 64.2621 45.6841 63.0268 44.2457 61.7079C41.9426 59.5982 39.6807 57.442 37.4015 55.3044C36.6883 54.6357 35.9764 53.9643 35.1569 53.1934C35.0493 54.5017 34.9298 55.6494 34.8647 56.8025C34.7386 59.0157 34.6748 61.2329 34.526 63.4435C34.3879 65.4816 34.3534 67.5117 34.526 69.5471C34.5871 70.2636 34.5499 70.9881 34.5938 71.7059C34.6668 72.9014 34.7797 74.0943 34.8568 75.2885C34.9418 76.6021 35.0042 77.9184 35.0812 79.232C35.0892 79.3726 35.121 79.5106 35.1689 79.8224ZM60.1586 96.4747C60.1506 96.3208 60.1639 96.2014 60.136 96.0926C59.634 94.1155 59.108 92.1438 58.6259 90.1628C58.2234 88.5015 57.8436 86.8336 57.5009 85.1591C57.0679 83.0454 56.708 80.9184 56.2697 78.806C55.9748 77.3836 55.8473 77.3306 54.4541 77.8069C53.0063 78.3005 51.5812 78.8671 50.1215 79.3222C46.7094 80.385 43.2841 81.3987 39.8627 82.4324C39.0046 82.6911 38.1453 82.9512 37.2129 83.2338C44.425 88.4829 52.0341 92.8683 60.1586 96.4747ZM89.2364 53.1761C87.624 54.7484 86.171 56.2253 84.6542 57.6318C82.5823 59.5517 80.4665 61.424 78.3613 63.3068C77.5113 64.0671 76.6214 64.7836 75.7767 65.5492C74.7699 66.4634 74.7739 66.559 75.8139 67.4918C76.7077 68.2932 77.6507 69.0416 78.5353 69.8523C81.3683 72.453 84.1867 75.0709 87.0064 77.6862C87.729 78.3549 88.4382 79.0356 89.2311 79.7853C90.1662 70.8925 90.1542 62.1206 89.2364 53.1761ZM60.0789 12.3243C60.2808 11.3649 60.0404 10.7068 59.541 10.0208C57.9206 7.80226 56.0572 5.80134 54.207 3.78581C53.9042 3.45542 53.6093 3.10113 53.3915 2.71368C52.928 1.88704 53.1498 0.911784 53.8696 0.371746C54.6201 -0.19085 55.6707 -0.120524 56.3215 0.621199C58.1477 2.69643 59.9434 4.79953 61.7498 6.89202C61.8852 7.04859 62.0154 7.21048 62.2013 7.43472C62.3594 7.25427 62.4896 7.10963 62.6157 6.96234C64.1684 5.16575 65.7184 3.36784 67.2697 1.56992C67.5247 1.27403 67.7744 0.972836 68.0374 0.684904C68.7426 -0.0860109 69.776 -0.212078 70.5529 0.371747C71.3166 0.946284 71.5464 2.04362 70.9222 2.87292C70.185 3.85481 69.343 4.76372 68.4982 5.65803C67.089 7.14811 65.8406 8.76292 64.6093 10.3976C64.1737 10.9761 64.3158 11.5746 64.3291 12.3004C64.5628 12.1372 64.7315 12.039 64.8776 11.9143C65.9322 11.0186 66.9708 10.1044 68.04 9.22467C68.4544 8.88367 68.9086 8.57185 69.3868 8.32903C70.1731 7.92832 71.1121 8.20297 71.6234 8.9155C72.1056 9.5869 72.0591 10.5277 71.5013 11.1672C71.3831 11.3026 71.2423 11.4193 71.1055 11.5361C69.1172 13.2345 67.1435 14.9515 65.1286 16.6167C64.3623 17.2496 64.1232 17.9714 64.3981 18.9692C64.5814 18.8551 64.7554 18.7636 64.9095 18.6468C65.7954 17.9728 66.6667 17.2801 67.5619 16.6194C68.1184 16.208 68.7386 16.0023 69.4253 16.2996C70.112 16.5968 70.5436 17.1037 70.6193 17.864C70.6937 18.6203 70.3816 19.1855 69.764 19.6327C68.0121 20.9012 66.2722 22.1869 64.5456 23.4899C64.3623 23.6292 64.2109 23.9264 64.1976 24.1587C64.0834 26.137 64.0502 28.1154 64.3716 30.1429C65.3876 29.6095 66.3904 29.0933 67.3826 28.5572C69.8397 27.2264 72.2889 25.8783 74.7487 24.5541C75.8072 23.9848 76.8751 23.4342 77.9602 22.9207C78.344 22.7389 78.4862 22.4642 78.5539 22.0993C78.8514 20.4766 79.1742 18.8578 79.4278 17.2284C79.5381 16.5212 79.4916 15.79 79.5381 15.0709C79.6111 13.9444 80.323 13.2623 81.3683 13.2597C82.3963 13.2584 83.1826 14.1779 83.1667 15.2168C83.1295 17.4513 82.8081 19.638 82.3299 21.8127C82.1493 22.6314 82.0284 23.4634 81.881 24.29C81.7163 25.2215 81.1837 25.7947 80.246 25.9805C80.0707 26.015 79.8874 26.0521 79.732 26.1357C76.895 27.647 74.0646 29.1689 71.2263 30.6789C70.0602 31.3012 68.8768 31.893 67.7093 32.5113C67.2896 32.7343 66.8898 32.9943 66.3585 33.3101C67.5473 33.9311 68.6018 34.4963 69.6684 35.0377C72.0524 36.2478 74.4618 37.4075 76.8193 38.6641C78.194 39.3978 79.4996 40.2643 80.8158 41.1002C82.7191 42.3077 84.6037 43.5417 86.4964 44.765C87.2468 45.2507 87.9973 45.7363 88.8632 46.2976C88.8924 45.942 88.9323 45.7191 88.9257 45.4975C88.8539 42.796 88.7782 40.0958 88.6959 37.3942C88.6401 35.5645 88.5803 33.7347 88.5006 31.9063C88.482 31.4618 88.4223 31.008 88.3027 30.5794C88.0716 29.7422 88.2058 29.0004 88.8818 28.4551C91.242 26.5523 93.3472 24.3245 96.0261 22.8212C96.5959 22.5014 97.1431 22.2586 97.8152 22.5094C99.146 23.0083 99.4927 24.6151 98.45 25.5771C98.2322 25.7801 97.9772 25.9526 97.7169 26.0972C95.7193 27.2025 94.1494 28.8465 92.4068 30.2756C92.1292 30.5038 92.1053 30.7745 92.1213 31.077C92.177 32.1557 92.2607 33.2318 92.2926 34.3106C92.3364 35.7529 92.3165 37.1965 92.3656 38.6388C92.4413 40.8176 92.5609 42.995 92.6446 45.1737C92.6592 45.5798 92.5874 45.9898 92.5463 46.5324C94.0059 45.8292 95.3859 45.2533 96.645 44.4333C96.9983 44.2038 97.3211 43.9198 97.6943 43.7314C98.1432 43.5032 98.3491 43.1794 98.3996 42.6858C98.6068 40.6584 98.8538 38.6349 99.049 36.6074C99.1566 35.4928 99.9097 34.7193 100.967 34.7392C102.023 34.7577 102.82 35.5539 102.759 36.687C102.699 37.8202 102.501 38.9467 102.362 40.0772C102.334 40.3107 102.302 40.5442 102.262 40.8627C103.16 40.5655 103.755 40.1767 103.945 39.2001C104.443 36.6392 105.163 34.1208 105.38 31.5082C105.391 31.3901 105.454 31.276 105.461 31.1579C105.528 30.1561 106.54 29.4993 107.321 29.5325C108.296 29.5736 109.115 30.3963 109.075 31.4684C109.038 32.4808 108.842 33.4906 108.677 34.495C108.516 35.4689 108.308 36.4349 108.123 37.4049C108.119 37.4274 108.15 37.4566 108.191 37.5309C108.822 37.2655 109.37 36.9683 109.689 36.2677C110.863 33.6896 111.716 31.0014 112.55 28.3038C112.681 27.8752 112.837 27.444 113.055 27.0566C113.563 26.1556 114.581 25.8425 115.459 26.2578C116.196 26.6081 116.694 27.6709 116.37 28.5559C115.379 31.2614 114.445 33.9868 113.493 36.7043C113.473 36.7587 113.484 36.8224 113.476 36.9683C113.8 37.0307 114.138 37.0944 114.477 37.1594C116.629 37.5707 118.782 37.9807 120.935 38.3934C121.347 38.4717 121.757 38.5579 122.17 38.6322C123.112 38.8021 123.785 39.6353 123.719 40.5562C123.654 41.4598 122.938 42.1816 122.008 42.2214C121.594 42.2387 121.166 42.1962 120.759 42.1086C118.001 41.5062 115.257 40.8547 112.436 40.5535C111.55 40.4593 110.956 40.7977 110.122 41.2382C110.774 41.4731 111.266 41.6509 111.758 41.8273C112.805 42.2015 113.856 42.5664 114.897 42.9539C115.262 43.0892 115.618 43.2577 115.957 43.4514C116.938 44.0127 117.268 44.9694 116.819 45.8889C116.382 46.7845 115.376 47.1282 114.352 46.7355C113.007 46.2206 111.668 45.6846 110.311 45.2029C109.15 44.7916 107.947 44.493 106.799 44.0512C105.867 43.6916 105.191 44.0101 104.449 44.6682C105.035 44.8991 105.554 45.0954 106.066 45.3104C106.814 45.6235 107.577 45.9088 108.294 46.283C109.328 46.8217 109.649 47.9469 109.103 48.8903C108.575 49.8045 107.536 50.0221 106.515 49.5458C105.1 48.8863 103.649 48.3065 102.213 47.6935C101.606 47.4347 100.996 46.9743 100.39 46.9796C99.7888 46.9836 99.1792 47.4374 98.5922 47.7306C97.2494 48.4007 96.0553 49.2977 94.775 50.1827C99.3466 53.0235 103.828 55.8086 108.328 58.6044C110.616 57.7804 112.983 57.174 115.109 55.936C115.485 55.7157 115.945 55.5618 116.376 55.53C117.171 55.4716 117.896 56.0674 118.122 56.8396C118.353 57.6251 118.031 58.4783 117.253 58.9241C116.446 59.3885 115.629 59.8583 114.765 60.194C112.749 60.9781 110.712 61.7132 108.662 62.4059C107.788 62.7017 106.929 62.6062 106.306 61.7782C106.217 61.6615 106.098 61.5567 105.973 61.4784C103.295 59.8092 100.614 58.1466 97.9347 56.4774C96.7871 55.7622 95.6502 55.0298 94.5013 54.3159C94.0989 54.0651 93.6779 53.8409 93.132 53.5291C93.0497 54.1991 93.0696 54.7524 93.0935 55.3004C93.1307 56.1695 93.1984 57.036 93.2635 57.9024C93.3565 59.1577 93.5119 60.4089 93.5451 61.6654C93.6022 63.9145 93.6208 66.1662 93.5929 68.4153C93.573 70.0009 93.4508 71.5839 93.3684 73.1682C93.2622 75.2023 93.1506 77.2364 93.039 79.3103C93.5331 79.3647 93.8386 79.1073 94.152 78.9135C97.0966 77.1037 100.04 75.2898 102.976 73.4654C103.971 72.8484 104.947 72.1995 105.928 71.5573C106.076 71.4604 106.219 71.337 106.329 71.1977C106.937 70.4268 107.757 70.261 108.603 70.5847C111.377 71.6449 114.291 72.3481 116.892 73.8608C118.067 74.5454 118.51 75.5287 117.969 76.5212C117.387 77.5906 116.128 77.7127 115.152 77.113C113.16 75.8856 110.903 75.2978 108.718 74.5388C108.523 74.4698 108.245 74.4844 108.059 74.5733C107.573 74.8081 107.111 75.0934 106.65 75.3774C104.147 76.9272 101.64 78.4743 99.146 80.0387C97.7209 80.9317 96.317 81.8592 94.8148 82.8291C95.4815 83.2962 96.127 83.8097 96.831 84.2276C97.8616 84.8407 98.9242 85.4033 99.9947 85.946C100.195 86.0481 100.527 86.0402 100.741 85.9486C102.733 85.1074 104.715 84.2436 106.693 83.3692C107.569 82.9817 108.565 83.2524 109.068 84.0538C109.571 84.8553 109.406 85.9008 108.654 86.486C108.397 86.6863 108.095 86.8416 107.792 86.969C106.715 87.4281 105.629 87.8659 104.476 88.3396C105.123 88.9075 105.713 89.3215 106.628 88.9872C109.166 88.0637 111.732 87.2144 114.27 86.2909C115.414 85.8743 116.489 86.2352 116.889 87.2821C117.209 88.122 116.905 89.0535 116.03 89.502C115.152 89.9518 114.218 90.3021 113.292 90.6511C112.31 91.0213 111.308 91.3384 110.211 91.7152C110.85 92.2234 111.409 92.5259 112.191 92.4556C114.925 92.2101 117.589 91.6011 120.259 91.0093C120.811 90.8873 121.384 90.7917 121.947 90.7917C122.898 90.7904 123.616 91.479 123.715 92.3853C123.809 93.2584 123.202 94.1593 122.317 94.3424C119.937 94.8373 117.551 95.3071 115.164 95.7688C114.611 95.8763 114.046 95.9148 113.416 95.9931C113.52 96.3049 113.589 96.5225 113.664 96.7388C114.429 98.9201 115.196 101.1 115.961 103.28C116.099 103.677 116.193 104.092 116.37 104.47C116.731 105.243 116.244 106.385 115.436 106.753C114.582 107.143 113.591 106.852 113.088 106C112.862 105.617 112.695 105.188 112.563 104.761C111.748 102.089 110.895 99.4336 109.757 96.8728C109.43 96.1377 108.895 95.7834 108.106 95.392C108.176 95.8803 108.216 96.2438 108.283 96.6034C108.536 97.99 108.827 99.3713 109.042 100.763C109.114 101.222 109.078 101.73 108.956 102.179C108.727 103.018 108.073 103.426 107.185 103.408C106.337 103.389 105.694 102.909 105.508 102.053C105.357 101.354 105.327 100.627 105.188 99.9233C104.792 97.921 104.323 95.9334 103.973 93.9245C103.797 92.9187 103.227 92.4278 102.251 92.1385C102.347 92.7781 102.449 93.3645 102.521 93.955C102.618 94.7564 102.745 95.5618 102.763 96.3672C102.787 97.4685 102.047 98.2143 101.004 98.2474C99.923 98.2833 99.1593 97.5455 99.0517 96.4296C98.8591 94.4313 98.6346 92.4357 98.4248 90.4388C98.369 89.908 98.1352 89.5604 97.6584 89.2287C96.0965 88.1393 94.3978 87.3339 92.5781 86.4953C92.5781 87.1056 92.5981 87.6231 92.5742 88.1379C92.5144 89.4263 92.4108 90.7121 92.3696 92.0005C92.3258 93.3446 92.3524 94.6901 92.3165 96.0342C92.266 97.9542 92.1983 99.8742 92.1119 101.793C92.088 102.294 92.2687 102.61 92.6499 102.935C94.4097 104.437 96.0965 106.028 98.1326 107.181C98.8936 107.613 99.1832 108.333 98.9999 109.188C98.8405 109.935 98.3212 110.364 97.596 110.562C97.0196 110.721 96.5374 110.485 96.0659 110.201C94.5425 109.28 93.1054 108.251 91.7932 107.042C90.9312 106.247 90.0134 105.513 89.1063 104.769C88.2987 104.106 88.0039 103.317 88.3399 102.292C88.4674 101.902 88.49 101.466 88.502 101.051C88.5923 97.8096 88.6613 94.5667 88.7543 91.3251C88.7902 90.0659 88.8738 88.808 88.9256 87.5501C88.9349 87.3232 88.8991 87.0937 88.8778 86.7633C88.5657 86.9332 88.328 87.0406 88.1128 87.1826C86.1776 88.4524 84.2624 89.7541 82.31 90.9947C79.9047 92.5233 77.5033 94.0571 74.9333 95.3137C72.2357 96.6326 69.5794 98.0378 66.9071 99.4071C66.7756 99.4748 66.656 99.5637 66.4303 99.707C66.8619 99.979 67.2179 100.23 67.5977 100.435C70.5317 102.022 73.467 103.605 76.4102 105.176C77.4967 105.756 78.5991 106.304 79.7014 106.852C79.9113 106.957 80.157 106.996 80.3881 107.053C81.1266 107.233 81.6831 107.685 81.8053 108.415C82.3272 111.547 83.2424 114.622 83.1494 117.841C83.1162 118.973 82.4481 119.699 81.4002 119.723C80.3602 119.748 79.627 119.097 79.5394 118.052C79.4531 117.007 79.4424 115.951 79.291 114.916C79.0865 113.521 78.793 112.14 78.5008 110.761C78.4529 110.537 78.2484 110.303 78.0518 110.161C77.664 109.881 77.2403 109.645 76.8153 109.421C73.0645 107.451 69.3111 105.488 65.5603 103.516C65.1725 103.312 64.8032 103.071 64.3822 102.82C64.0422 104.908 64.09 106.913 64.1989 108.917C64.2095 109.121 64.3636 109.377 64.531 109.505C66.2337 110.79 67.9338 112.08 69.6737 113.315C70.5888 113.964 70.9182 114.974 70.3829 115.888C69.8477 116.801 68.74 117.108 67.7956 116.528C67.1063 116.105 66.4767 115.583 65.8312 115.092C65.3783 114.748 64.9454 114.381 64.4101 113.948C64.2587 114.805 64.1272 115.498 64.8537 116.11C66.9469 117.869 69.0003 119.678 71.0882 121.444C71.7137 121.973 72.079 122.578 71.9156 123.405C71.7669 124.157 71.2648 124.595 70.5436 124.81C70.0044 124.972 69.5143 124.813 69.0919 124.516C68.3309 123.978 67.5897 123.412 66.8712 122.821C66.061 122.154 65.2854 121.447 64.4114 120.684C64.2454 121.437 64.2069 122.038 64.6532 122.663C66.3174 124.997 68.2472 127.102 70.1956 129.191C70.6472 129.677 71.1174 130.157 71.2157 130.853C71.3445 131.759 70.9965 132.45 70.2607 132.81C69.505 133.179 68.6629 133.006 68.0506 132.332C67.02 131.196 65.9866 130.063 64.9799 128.906C64.0541 127.842 63.1629 126.747 62.115 125.497C62.0141 125.674 61.9397 125.874 61.8095 126.026C60.2223 127.871 58.6259 129.709 57.0334 131.551C56.8169 131.8 56.6163 132.064 56.3945 132.31C55.6906 133.089 54.6666 133.22 53.8816 132.639C53.1033 132.064 52.924 131.046 53.4752 130.147C53.6771 129.816 53.9307 129.513 54.195 129.226C56.0505 127.216 57.9113 125.211 59.5317 122.994C60.0298 122.312 60.2941 121.657 60.0855 120.747C59.9102 120.852 59.7349 120.928 59.5954 121.044C58.5156 121.957 57.4491 122.886 56.3653 123.794C56.0452 124.063 55.6972 124.307 55.336 124.52C54.373 125.086 53.3583 124.895 52.7832 124.066C52.1882 123.206 52.4193 122.174 53.3357 121.453C54.3279 120.673 55.3187 119.89 56.2776 119.069C57.3043 118.188 58.3018 117.271 59.2979 116.354C60.2436 115.482 60.2343 115.474 60.0762 113.996C59.8544 114.138 59.6552 114.247 59.4772 114.384C58.6896 114.986 57.9113 115.603 57.121 116.203C56.9072 116.366 56.6748 116.515 56.4317 116.626C55.506 117.052 54.5019 116.723 54.0224 115.855C53.5482 114.997 53.8298 113.967 54.6373 113.384C56.3905 112.117 58.1318 110.832 59.8584 109.529C60.0404 109.392 60.1639 109.096 60.1971 108.857C60.472 106.884 60.2861 104.916 60.0922 102.828C55.3678 105.349 50.6953 107.842 45.9776 110.36C45.6549 112.623 44.8792 114.832 44.9668 117.178C44.9775 117.473 44.8912 117.771 44.8553 118.068C44.7251 119.163 44.0584 119.759 42.9985 119.723C41.9997 119.69 41.2838 118.967 41.2519 117.916C41.2413 117.53 41.3648 117.141 41.3529 116.755C41.2639 113.986 42.1989 111.369 42.5456 108.663C42.6585 107.789 43.2229 107.21 44.1341 107.033C44.3373 106.993 44.5472 106.938 44.7305 106.847C45.8063 106.311 46.8834 105.779 47.942 105.212C50.9384 103.613 53.9255 102 56.9139 100.386C57.2552 100.202 57.5793 99.9843 57.9857 99.7375C57.7466 99.5756 57.5753 99.4297 57.38 99.3315C55.2882 98.2779 53.1817 97.2496 51.0991 96.1762C49.6062 95.4066 48.1014 94.6463 46.6749 93.7613C43.2296 91.6263 39.8281 89.4197 36.4081 87.245C36.1584 87.0857 35.8967 86.9478 35.5381 86.7394C35.4053 87.3763 35.4557 87.9363 35.469 88.4843C35.5142 90.3751 35.5673 92.2645 35.647 94.154C35.7254 96.0408 35.8436 97.9263 35.9339 99.8118C35.9565 100.292 35.9246 100.775 35.9485 101.255C35.9658 101.612 35.9552 102 36.0893 102.317C36.4984 103.286 36.1437 104.015 35.4425 104.643C34.8607 105.164 34.2285 105.63 33.6468 106.152C31.9865 107.64 30.2984 109.087 28.3566 110.205C27.7882 110.533 27.2317 110.747 26.5649 110.48C25.2474 109.954 24.9339 108.344 25.9938 107.399C26.2382 107.181 26.5251 107.003 26.8133 106.842C28.7777 105.742 30.3223 104.114 32.0304 102.692C32.1884 102.561 32.3133 102.293 32.3159 102.087C32.3226 101.37 32.2721 100.65 32.2363 99.9326C32.2163 99.5425 32.1658 99.1537 32.1565 98.7636C32.1087 96.9033 32.0822 95.0417 32.0277 93.1814C31.9759 91.4724 31.8936 89.7634 31.8338 88.0544C31.8179 87.5793 31.8312 87.103 31.8312 86.4966C30.9094 86.9371 30.0567 87.2954 29.2532 87.7412C28.3088 88.264 27.411 88.8717 26.4839 89.425C26.1944 89.5989 26.0841 89.8271 26.0496 90.1535C25.8198 92.299 25.5675 94.4406 25.3377 96.5862C25.2301 97.584 24.4637 98.2687 23.4371 98.2488C22.4197 98.2289 21.6599 97.5136 21.6891 96.4721C21.7184 95.4862 21.8671 94.503 21.9694 93.5184C22.0119 93.1058 22.0677 92.6944 22.1275 92.1942C21.296 92.4384 20.7116 92.7316 20.5283 93.6126C19.9758 96.285 19.2679 98.9268 19.0115 101.655C18.9013 102.82 18.0646 103.508 16.9263 103.405C15.9435 103.316 15.2435 102.463 15.3843 101.35C15.5955 99.6844 15.9023 98.0325 16.1693 96.3752C16.2144 96.0939 16.2622 95.8139 16.3273 95.4172C15.5503 95.7502 15.0204 96.082 14.7056 96.7826C13.5581 99.3381 12.6974 101.993 11.8912 104.668C11.761 105.098 11.599 105.527 11.3838 105.917C10.8778 106.831 9.87899 107.163 8.99309 106.754C8.12446 106.353 7.75389 105.371 8.08726 104.387C9.01965 101.63 9.94539 98.8697 10.9057 96.0209C10.7184 95.9825 10.4448 95.9227 10.1698 95.871C7.92788 95.4464 5.68459 95.0231 3.44263 94.5985C3.06011 94.5269 2.68023 94.4459 2.29639 94.3796C1.2883 94.2084 0.658767 93.4163 0.730491 92.3999C0.796898 91.4525 1.5181 90.793 2.55142 90.7864C2.96714 90.7824 3.38816 90.8461 3.79724 90.9284C5.77091 91.3251 7.73663 91.7603 9.71296 92.1358C10.5962 92.303 11.5007 92.3587 12.3945 92.4702C13.0865 92.5565 13.582 92.165 14.2089 91.767C13.91 91.6449 13.7068 91.552 13.4969 91.4764C12.1967 91.0093 10.8911 90.5529 9.59476 90.0752C9.20162 89.9292 8.81511 89.7514 8.45119 89.5444C7.4856 88.9951 7.1562 88.0013 7.61443 87.0964C8.07132 86.1941 9.0595 85.8836 10.0875 86.2737C11.7995 86.9239 13.5182 87.5581 15.2435 88.1764C16.0351 88.4604 16.8426 88.7019 17.6488 88.9407C18.7512 89.2684 18.9505 89.2074 19.9041 88.3264C18.8402 87.8872 17.7896 87.4586 16.7443 87.0167C16.4402 86.8894 16.1334 86.75 15.8651 86.5643C15.0297 85.9844 14.8172 84.9495 15.3312 84.091C15.8345 83.2497 16.8599 82.9777 17.7723 83.3851C19.7181 84.2542 21.6812 85.0874 23.631 85.9473C23.9272 86.0773 24.1675 86.0892 24.4797 85.9499C26.2461 85.1578 27.8453 84.0963 29.4165 82.9857C29.4856 82.9366 29.5294 82.853 29.5971 82.7694C27.2077 81.2992 24.8316 79.845 22.4622 78.3775C20.4965 77.1594 18.5307 75.9373 16.585 74.6874C16.2078 74.4446 15.8996 74.4419 15.5052 74.5839C13.2991 75.3694 11.0571 76.0501 9.00108 77.2231C7.9372 77.8294 6.80026 77.3823 6.36595 76.342C6.00336 75.4782 6.31415 74.5149 7.22794 74.0465C8.53752 73.3778 9.871 72.7462 11.2324 72.1955C12.6243 71.6316 14.0654 71.1951 15.4786 70.6856C16.5039 70.3154 17.4257 70.3246 18.1575 71.2707C18.2479 71.3875 18.3727 71.4843 18.4989 71.5626C21.2854 73.2849 24.0772 74.9966 26.8611 76.7229C27.9077 77.373 28.9317 78.0603 29.973 78.7211C30.3476 78.9586 30.7447 79.1643 31.2308 79.4429C31.264 79.1258 31.3145 78.9042 31.3039 78.6853C31.1923 76.4694 31.0462 74.2535 30.9572 72.0363C30.8656 69.7899 30.7394 67.5382 30.7899 65.2931C30.8483 62.658 31.1033 60.0294 31.2295 57.3956C31.2879 56.1682 31.2388 54.9369 31.2388 53.5888C30.9014 53.7613 30.58 53.8966 30.2865 54.0784C27.8626 55.5884 25.4453 57.1076 23.024 58.6216C21.5723 59.5305 20.1166 60.4315 18.6662 61.343C18.4657 61.4704 18.2532 61.6084 18.1097 61.7928C17.4722 62.6089 16.6036 62.7283 15.7482 62.3979C13.0347 61.347 10.1619 60.6928 7.63172 59.1802C7.40061 59.0422 7.14693 58.9321 6.93575 58.7676C6.25704 58.2355 6.04586 57.3412 6.3965 56.5875C6.76972 55.7834 7.61178 55.3628 8.48838 55.587C8.83238 55.6759 9.17239 55.8259 9.47787 56.0076C11.4356 57.1753 13.6364 57.7259 15.7549 58.4809C15.9448 58.5486 16.2237 58.4929 16.415 58.4C16.8732 58.1784 17.3115 57.9104 17.7458 57.6424C20.2494 56.0913 22.7544 54.5428 25.2474 52.9771C26.6911 52.0721 28.1149 51.134 29.6237 50.1628C28.4058 49.3335 27.2357 48.4551 25.9301 47.7797C25.5303 47.5714 25.0946 47.4228 24.7187 47.1826C24.2897 46.9079 23.9192 46.9132 23.457 47.1176C22.0279 47.7479 20.5735 48.3224 19.1364 48.9341C18.6954 49.1212 18.2718 49.3534 17.8454 49.5736C16.9077 50.0593 15.8505 49.7833 15.3298 48.9102C14.7826 47.992 15.0443 46.8894 16.0232 46.3506C16.7563 45.9459 17.5506 45.6487 18.3236 45.321C18.8389 45.1021 19.3675 44.911 19.9865 44.6708C19.252 44.0764 18.641 43.6889 17.7192 44.0299C15.213 44.9561 12.6748 45.7947 10.1632 46.7089C9.07944 47.103 8.07132 46.823 7.60911 45.8929C7.14425 44.9614 7.5095 43.9742 8.5415 43.4037C8.82972 43.2444 9.12855 43.0945 9.43669 42.9791C10.3651 42.6301 11.2988 42.297 12.2325 41.9653C12.8528 41.7437 13.477 41.5341 14.2421 41.2714C13.5182 40.7884 12.9551 40.454 12.1143 40.5403C9.2335 40.8362 6.42705 41.4916 3.61264 42.1192C3.20755 42.2095 2.7772 42.2453 2.3628 42.2201C1.42643 42.1643 0.751744 41.4306 0.725178 40.5058C0.698613 39.5677 1.3016 38.81 2.21539 38.6375C5.07496 38.0988 7.93585 37.5614 10.7967 37.0214C10.8512 37.0108 10.9004 36.967 10.984 36.9232C10.9336 36.76 10.8977 36.5822 10.8247 36.423C9.80861 34.2349 9.18966 31.9063 8.44321 29.6241C8.32235 29.2525 8.16961 28.8916 8.05008 28.5214C7.75257 27.5966 8.16562 26.62 9.00371 26.2419C9.85374 25.8571 10.8499 26.1662 11.344 27.0154C11.5684 27.4015 11.7358 27.8288 11.8659 28.2574C12.6761 30.9324 13.5328 33.5861 14.6711 36.147C14.9938 36.8768 15.5198 37.2536 16.3366 37.5853C16.2171 36.9245 16.1082 36.3779 16.0205 35.8285C15.7987 34.438 15.5463 33.0501 15.383 31.6515C15.2528 30.5237 15.966 29.6639 17.01 29.5431C17.9862 29.429 18.8442 30.2397 19.0209 31.3278C19.3622 33.4282 19.7513 35.5207 20.1299 37.6158C20.2149 38.0882 20.3344 38.5539 20.4447 39.021C20.7395 40.2643 20.7409 40.2643 22.1501 40.8693C22.0319 39.9962 21.9057 39.1868 21.818 38.3721C21.7463 37.7167 21.6759 37.0559 21.6878 36.4004C21.7051 35.4875 22.4582 34.7909 23.3866 34.7405C24.3389 34.6901 25.2062 35.3548 25.3151 36.2757C25.5621 38.3576 25.7999 40.4407 26.0044 42.5279C26.0589 43.0825 26.2634 43.4156 26.7362 43.7513C28.1933 44.785 29.7897 45.5452 31.3902 46.3068C31.4938 46.3559 31.6067 46.3865 31.8245 46.4661C31.8245 45.93 31.8126 45.467 31.8272 45.0039C31.8909 43.0839 31.9547 41.1639 32.033 39.2452C32.1234 37.028 32.2283 34.8121 32.3266 32.5949C32.3305 32.5047 32.3186 32.4132 32.3319 32.3242C32.5152 31.134 32.1459 30.2782 31.1405 29.4887C29.5812 28.264 28.1348 26.9 26.4016 25.9022C25.6618 25.4749 25.2407 24.83 25.3815 23.957C25.5767 22.7389 26.9713 21.9189 28.1508 22.6885C29.3581 23.4753 30.5614 24.2794 31.6957 25.1644C32.9521 26.145 34.1316 27.2224 35.3375 28.264C36.1012 28.9221 36.5542 29.6758 36.068 30.7174C35.9817 30.9018 35.9645 31.1261 35.9525 31.3344C35.8834 32.5021 35.8024 33.6697 35.7692 34.8387C35.7108 36.9696 35.6948 39.1019 35.6377 41.2329C35.6018 42.581 35.5195 43.9291 35.4637 45.2785C35.4518 45.5665 35.4611 45.8557 35.4611 46.2711C35.8223 46.08 36.0614 45.9765 36.2766 45.8358C38.2131 44.5687 40.1323 43.275 42.0807 42.0277C43.4966 41.1214 44.9137 40.2099 46.3894 39.4098C49.4774 37.7366 52.6026 36.1337 55.7145 34.507C56.457 34.1195 57.2087 33.7533 58.1238 33.2915C56.8647 32.6215 55.7517 32.035 54.6453 31.4379C52.5043 30.2822 50.3712 29.1106 48.2249 27.9615C47.0335 27.3246 45.8262 26.7169 44.6229 26.1039C44.4927 26.0375 44.3386 26.0096 44.1925 25.9831C43.2017 25.804 42.6877 25.1724 42.5137 24.221C42.1564 22.2745 41.7606 20.3319 41.4671 18.3761C41.3037 17.2828 41.2692 16.1642 41.2586 15.0563C41.2493 14.1275 41.9001 13.4282 42.7581 13.2876C43.6134 13.1456 44.4927 13.5702 44.7397 14.3464C44.9004 14.8519 44.9748 15.4092 44.9616 15.94C44.9058 18.1333 45.6031 20.2072 45.9351 22.3369C45.9617 22.508 46.133 22.7017 46.2897 22.7973C46.8808 23.1542 47.4891 23.4833 48.0974 23.8097C50.4536 25.0742 52.8098 26.3387 55.1713 27.5926C56.2338 28.1552 57.311 28.6899 58.3749 29.2485C58.9247 29.5352 59.4626 29.8443 60.1267 30.2105C60.144 28.4073 60.5504 26.7328 60.2303 25.0304C60.2237 24.9999 60.2117 24.9681 60.2184 24.9415C60.4309 23.9105 59.8478 23.3705 59.0549 22.8623C58.173 22.2957 57.3761 21.5951 56.5313 20.9662C55.9297 20.5177 55.3253 20.0732 54.6998 19.6592C53.8285 19.0807 53.5323 18.0126 54.029 17.1342C54.5483 16.2147 55.6587 15.8909 56.5951 16.4601C57.2857 16.8807 57.918 17.4009 58.5648 17.8905C59.0389 18.2514 59.4958 18.6349 60.0616 19.0913C60.2131 18.1545 60.2476 17.446 59.5038 16.8263C57.4265 15.0948 55.3984 13.3022 53.3344 11.5547C52.742 11.0531 52.3569 10.4839 52.487 9.68775C52.6092 8.93807 53.0582 8.40466 53.7953 8.23747C54.1765 8.15122 54.6413 8.18837 55.0039 8.333C55.4688 8.51744 55.8978 8.82926 56.2896 9.15169C57.4026 10.0699 58.4891 11.0213 59.5888 11.9567C59.7176 12.0668 59.8597 12.161 60.0789 12.3243Z" fill="white"/>
</svg>
